<svg id="Layer_1" data-name="Layer 1" xmlns="http://www.w3.org/2000/svg" viewBox="0 0 1365.07 442.59"><defs><style>.cls-1{font-size:292.74px;font-family:OpenSans-Bold, Open Sans;font-weight:700;}.cls-1,.cls-3{fill:#fff;}.cls-2{fill:#15608f;}.cls-4{fill:none;stroke:#fff;stroke-linecap:round;stroke-linejoin:round;stroke-width:5px;}</style></defs><title>logo</title><text class="cls-1" transform="translate(0 356.83)"><tspan xml:space="preserve">K    RYSEL</tspan></text><circle class="cls-2" cx="358.07" cy="294.3" r="29.4"/><path class="cls-2" d="M520.85,167.64a29.3,29.3,0,0,0-26.13-29.07,138,138,0,0,0-19.24-46.28,29.24,29.24,0,0,0-41.13-41.13,138,138,0,0,0-46.28-19.24,29.24,29.24,0,0,0-58.15,0,138,138,0,0,0-46.28,19.24,29.24,29.24,0,0,0-41.13,41.13,138,138,0,0,0-19.24,46.28,29.24,29.24,0,0,0,0,58.15A137.08,137.08,0,0,0,242.49,243a29.36,29.36,0,1,0,10-8,124.46,124.46,0,0,1-16.43-39.66,29.22,29.22,0,0,0,0-55.39,125.25,125.25,0,0,1,16.49-39.62A29.23,29.23,0,0,0,291.69,61.2a125.21,125.21,0,0,1,39.62-16.49,29.22,29.22,0,0,0,55.38,0A125.24,125.24,0,0,1,426.31,61.2a29.23,29.23,0,0,0,39.13,39.13,125.23,125.23,0,0,1,16.49,39.62,29.22,29.22,0,0,0,0,55.39A124.43,124.43,0,0,1,465.52,235a29.44,29.44,0,1,0,10,8,137,137,0,0,0,19.18-46.32A29.3,29.3,0,0,0,520.85,167.64Z" transform="translate(-0.93 -5.79)"/><path class="cls-3" d="M452.65,44.58a29.4,29.4,0,1,1-20.79,8.61,29.31,29.31,0,0,1,20.79-8.61m0-6.36A35.76,35.76,0,1,0,477.94,48.7a35.52,35.52,0,0,0-25.29-10.47Z" transform="translate(-0.93 -5.79)"/><path class="cls-4" d="M265.81,362.14" transform="translate(-0.93 -5.79)"/><path class="cls-4" d="M326.91,287.39" transform="translate(-0.93 -5.79)"/><path class="cls-3" d="M388.47,167.7a29.47,29.47,0,1,0-53.61,16.82L274.68,330.76H236.51a15.93,15.93,0,1,0,0,31.86H296l68.3-166A29.43,29.43,0,0,0,388.47,167.7Z" transform="translate(-0.93 -5.79)"/><path class="cls-3" d="M481.49,362.61H422L370.76,238.15A15.93,15.93,0,1,1,400.22,226l43.09,104.73h38.18a15.93,15.93,0,1,1,0,31.86Z" transform="translate(-0.93 -5.79)"/><path class="cls-3" d="M447.86,78v5.13H465.1V86.2H447.86v8.57h-9.11V86.2h-4.51V83.12h4.51V53.19h16.2q8.46,0,12.29,3.26T471.07,66A10.54,10.54,0,0,1,467,74.8Q462.85,78,455,78Zm0-4.16H452a22.7,22.7,0,0,0,6.24-.67,5.21,5.21,0,0,0,3.18-2.34,9.64,9.64,0,0,0,1-4.8,15.3,15.3,0,0,0-.73-5.47,4.38,4.38,0,0,0-2.86-2.49,22.89,22.89,0,0,0-6.73-.72h-4.27Z" transform="translate(-0.93 -5.79)"/></svg>