<svg id="Layer_1" data-name="Layer 1" xmlns="http://www.w3.org/2000/svg" viewBox="0 0 455.09 479"><defs><style>.cls-1{opacity:0.65;}.cls-2,.cls-3,.cls-4{fill:none;stroke:#fff;}.cls-2{stroke-linecap:round;stroke-linejoin:round;}.cls-2,.cls-3{stroke-width:3px;}.cls-3,.cls-4{stroke-miterlimit:10;}.cls-5{font-size:25.35px;}.cls-5,.cls-6{fill:#fff;font-family:OpenSans-Regular, Open Sans;}.cls-6{font-size:22.85px;}</style></defs><title>2</title><g id="ICONS_CIRCLE" data-name="ICONS CIRCLE" class="cls-1"><circle class="cls-2" cx="272.1" cy="468.13" r="3.28"/><path class="cls-3" d="M258,147.86a23.47,23.47,0,1,0-9.34,8.46,11.7,11.7,0,0,0,15.48-.94c.23-.23.45-.48.66-.73Z" transform="translate(-0.23 -0.33)"/><path class="cls-3" d="M210.35,127.25a23.38,23.38,0,0,0-19.79,35.87l-6.79,6.79c.21.25.42.49.66.72a11.7,11.7,0,0,0,15.48.94,23.4,23.4,0,1,0,10.46-44.33Z" transform="translate(-0.23 -0.33)"/><circle class="cls-4" cx="199.73" cy="151.24" r="2.72"/><circle class="cls-4" cx="210.11" cy="151.24" r="2.72"/><circle class="cls-4" cx="229.09" cy="135.07" r="2.16"/><circle class="cls-4" cx="237.32" cy="135.07" r="2.16"/><circle class="cls-4" cx="245.54" cy="135.07" r="2.16"/><path class="cls-3" d="M315.1,363.74a21.41,21.41,0,1,1-42.82,0c0-7.55,3.9-18,9.79-24.59a3.75,3.75,0,0,0,1.08.16h21.08a3.81,3.81,0,0,0,1.08-.15C311.2,345.75,315.1,356.19,315.1,363.74Z" transform="translate(-0.23 -0.33)"/><path class="cls-3" d="M305.45,331.94l2.3-11.08c.47-2.26-1.44-4.25-3.46-3.6l-7.49,2.41a9.83,9.83,0,0,1-6,0l-7.71-2.44c-2-.64-3.92,1.35-3.45,3.61l2.3,11.1" transform="translate(-0.23 -0.33)"/><path class="cls-3" d="M307.94,335.63a3.64,3.64,0,0,1-1.09,2.6,3.75,3.75,0,0,1-1.53.94,3.81,3.81,0,0,1-1.08.15H283.16a3.72,3.72,0,0,1-3.7-3.69,3.64,3.64,0,0,1,1.09-2.6,3.69,3.69,0,0,1,2.61-1.09h21.08A3.7,3.7,0,0,1,307.94,335.63Z" transform="translate(-0.23 -0.33)"/><text class="cls-5" transform="translate(287.18 370.56)">$</text><rect class="cls-3" x="55.52" y="61.19" width="72.98" height="60.31" rx="3.88" ry="3.88"/><line class="cls-3" x1="55.52" y1="105.48" x2="128.51" y2="105.48"/><circle class="cls-4" cx="92.01" cy="113.85" r="2.87"/><rect class="cls-3" x="83.27" y="121.49" width="17.49" height="9.53"/><rect class="cls-3" x="72.38" y="131.03" width="39.27" height="7.82" rx="2.33" ry="2.33"/><path class="cls-3" d="M142.27,185a4.69,4.69,0,0,1-3.32-1.37l-15-15a4.69,4.69,0,0,1,6.63-6.63l11.21,11.21,17.29-22.35a4.69,4.69,0,0,1,7.42,5.74L146,183.21a4.69,4.69,0,0,1-3.41,1.81Z" transform="translate(-0.23 -0.33)"/><rect class="cls-2" x="350.23" y="210.62" width="9.82" height="28.16"/><rect class="cls-2" x="369.34" y="202.98" width="9.82" height="35.79"/><rect class="cls-2" x="388.46" y="194.85" width="9.82" height="43.92"/><rect class="cls-2" x="407.58" y="182.46" width="9.82" height="56.31"/><path class="cls-2" d="M417.15,155.19c-15.81,18.78-30.8,35.58-66.7,35.58" transform="translate(-0.23 -0.33)"/><polyline class="cls-2" points="405.43 154.86 416.92 154.86 416.92 166.3"/><path class="cls-2" d="M26.71,268.53a16.56,16.56,0,0,0-16.55,16.56c0,9.94,16.55,33.27,16.55,33.27s16.56-23.58,16.56-33.27A16.56,16.56,0,0,0,26.71,268.53Zm0,20.9a6.2,6.2,0,1,1,6.2-6.2A6.21,6.21,0,0,1,26.71,289.42Z" transform="translate(-0.23 -0.33)"/><path class="cls-2" d="M306,416.91v13.41a11.49,11.49,0,0,1-11.5,11.49l.9,12.58-17.28-12.58H264.61v-8.26A13.6,13.6,0,0,0,251,420h-6.6v-3.07a11.49,11.49,0,0,1,11.49-11.49h38.61A11.49,11.49,0,0,1,306,416.91Z" transform="translate(-0.23 -0.33)"/><line class="cls-2" x1="287.47" y1="415.01" x2="256.61" y2="415.01"/><line class="cls-2" x1="295.21" y1="430.9" x2="273.2" y2="430.9"/><line class="cls-2" x1="295.21" y1="422.95" x2="279.72" y2="422.95"/><line class="cls-2" x1="267.42" y1="422.95" x2="259.67" y2="422.95"/><path class="cls-2" d="M264.61,433.55V449.4A13.57,13.57,0,0,1,251,463H224.77l-20.39,14.86L205.44,463a13.56,13.56,0,0,1-13.58-13.57V433.55A13.57,13.57,0,0,1,205.44,420H251a13.6,13.6,0,0,1,13.57,13.58Z" transform="translate(-0.23 -0.33)"/><line class="cls-2" x1="213.29" y1="431.37" x2="249.73" y2="431.37"/><line class="cls-2" x1="204.15" y1="450.14" x2="230.15" y2="450.14"/><line class="cls-2" x1="204.15" y1="440.75" x2="222.44" y2="440.75"/><line class="cls-2" x1="236.97" y1="440.75" x2="248.57" y2="440.75"/><circle class="cls-3" cx="42.87" cy="170.61" r="32.34"/><circle class="cls-3" cx="42.87" cy="170.61" r="23.73"/><line class="cls-2" x1="42.87" y1="138.27" x2="42.87" y2="146.88"/><line class="cls-2" x1="70.61" y1="153.99" x2="63.34" y2="158.61"/><line class="cls-2" x1="22.18" y1="158.99" x2="14.97" y2="154.26"/><line class="cls-2" x1="19.14" y1="148.65" x2="25.21" y2="154.72"/><text class="cls-6" transform="translate(34.73 177.77)">%</text><path class="cls-3" d="M200.13,53.22l-6.57,46.16a8.74,8.74,0,0,1-8.65,7.51h-.22V53.55l5.12-.33Z" transform="translate(-0.23 -0.33)"/><path class="cls-3" d="M230.83,40.72a11,11,0,0,1-10.94,11V29.76A11,11,0,0,1,230.83,40.72Z" transform="translate(-0.23 -0.33)"/><path class="cls-3" d="M213.92,17.36V64.08a10.86,10.86,0,0,0-10.84-10.86H183.57a12.5,12.5,0,1,1,0-25h19.51A10.85,10.85,0,0,0,213.92,17.36Z" transform="translate(-0.23 -0.33)"/><line class="cls-3" x1="191.05" y1="27.89" x2="191.05" y2="52.22"/><path class="cls-3" d="M219.88,14.49V66.13a3,3,0,0,1-6,0V14.49a3,3,0,0,1,6,0Z" transform="translate(-0.23 -0.33)"/><line class="cls-2" x1="255.82" y1="8.78" x2="265.38" y2="1.5"/><line class="cls-2" x1="233.43" y1="25.83" x2="247.38" y2="15.21"/><line class="cls-2" x1="246.99" y1="29.48" x2="236.27" y2="34.91"/><line class="cls-2" x1="272.1" y1="16.76" x2="256.46" y2="24.68"/><line class="cls-2" x1="255.82" y1="71.07" x2="265.38" y2="78.35"/><line class="cls-2" x1="233.43" y1="54.02" x2="247.38" y2="64.64"/><line class="cls-2" x1="246.99" y1="50.37" x2="236.27" y2="44.94"/><line class="cls-2" x1="272.1" y1="63.09" x2="256.46" y2="55.17"/><line class="cls-2" x1="243.1" y1="39.98" x2="249.55" y2="39.98"/><line class="cls-2" x1="256.46" y1="39.98" x2="270.07" y2="39.98"/><line class="cls-2" x1="278.28" y1="40.05" x2="283.85" y2="40.05"/><rect class="cls-2" x="176.55" y="335.67" width="8.16" height="24.04" rx="3.22" ry="3.22"/><path class="cls-2" d="M243.74,360h0a4.09,4.09,0,0,1-4.08-4.08V340.07a4.09,4.09,0,0,1,4.08-4.08h0a4.09,4.09,0,0,1,4.08,4.08V356A4.09,4.09,0,0,1,243.74,360Z" transform="translate(-0.23 -0.33)"/><path class="cls-2" d="M180.85,336a31.44,31.44,0,0,1,62.88,0" transform="translate(-0.23 -0.33)"/><path class="cls-2" d="M241.16,360l-3.9,10.4A18.22,18.22,0,0,1,215,381.5h0" transform="translate(-0.23 -0.33)"/><circle class="cls-2" cx="212.07" cy="379.45" r="4.78"/><path class="cls-2" d="M52,261.26v4.55a7.47,7.47,0,0,0,7.47,7.47h48.85" transform="translate(-0.23 -0.33)"/><path class="cls-2" d="M66.08,261.26V205.79H115v60.8a6.7,6.7,0,0,1-6.7,6.7h0a6.7,6.7,0,0,1-6.7-6.7v-5.32H52" transform="translate(-0.23 -0.33)"/><line class="cls-2" x1="74.86" y1="218.12" x2="101.39" y2="218.12"/><line class="cls-2" x1="74.86" y1="244.52" x2="101.39" y2="244.52"/><line class="cls-2" x1="74.86" y1="235.72" x2="101.39" y2="235.72"/><line class="cls-2" x1="74.86" y1="226.92" x2="92.89" y2="226.92"/><path class="cls-3" d="M391,142.58l11.1-20.28a18.94,18.94,0,0,0,2-12.7h0a18.94,18.94,0,0,0-18.59-15.33h-2.81A18.94,18.94,0,0,0,364,109.6h0a18.94,18.94,0,0,0,2,12.7l11.1,20.28Z" transform="translate(-0.23 -0.33)"/><line class="cls-3" x1="383.81" y1="147.07" x2="383.81" y2="147.06"/><path class="cls-3" d="M381.37,147.4V119.48a3.42,3.42,0,0,0-3.42-3.42h0a3.42,3.42,0,0,0-3.42,3.42V120a3.42,3.42,0,0,0,3.42,3.42h9.26" transform="translate(-0.23 -0.33)"/><path class="cls-3" d="M386.72,147.4V119.48a3.42,3.42,0,0,1,3.42-3.42h0a3.42,3.42,0,0,1,3.42,3.42V120a3.42,3.42,0,0,1-3.42,3.42h-9.26" transform="translate(-0.23 -0.33)"/><path class="cls-2" d="M388.44,148.77h-8.8a3.38,3.38,0,0,1-3.37-3.37h0a3.38,3.38,0,0,1,3.37-3.37h8.8a3.38,3.38,0,0,1,3.37,3.37h0A3.38,3.38,0,0,1,388.44,148.77Z" transform="translate(-0.23 -0.33)"/><path class="cls-2" d="M388.44,142h-8.8a3.38,3.38,0,0,0-3.37,3.37h0a3.38,3.38,0,0,0,3.37,3.37h8.8a3.38,3.38,0,0,0,3.37-3.37h0A3.38,3.38,0,0,0,388.44,142Z" transform="translate(-0.23 -0.33)"/><path class="cls-2" d="M388.44,148.77h-8.8a3.38,3.38,0,0,0-3.37,3.37h0a3.38,3.38,0,0,0,3.37,3.37h8.8a3.38,3.38,0,0,0,3.37-3.37h0A3.38,3.38,0,0,0,388.44,148.77Z" transform="translate(-0.23 -0.33)"/><rect class="cls-3" x="357.08" y="267.79" width="86.34" height="52.2" rx="3.59" ry="3.59"/><line class="cls-2" x1="366.33" y1="309.38" x2="388.69" y2="309.38"/><line class="cls-2" x1="399.12" y1="309.38" x2="415.62" y2="309.38"/><line class="cls-2" x1="426.13" y1="309.38" x2="434.38" y2="309.38"/><rect class="cls-2" x="368.36" y="279.29" width="15.45" height="15.45"/><line class="cls-2" x1="378.68" y1="279.29" x2="378.68" y2="285.39"/><line class="cls-2" x1="373.11" y1="287.02" x2="373.11" y2="293.12"/><line class="cls-2" x1="434.38" y1="267.79" x2="434.38" y2="319.99"/><path class="cls-2" d="M61.16,350l3,7a6.22,6.22,0,0,0,5.37,3.72,4.83,4.83,0,0,1,8.52.6L81,368.21a4.83,4.83,0,0,1-2.52,6.33l-1.58.68a14.11,14.11,0,0,1-18.49-7.35l-9.08-21.06a14.11,14.11,0,0,1,7.35-18.49l1.58-.68a4.83,4.83,0,0,1,6.33,2.52L67.55,337a4.8,4.8,0,0,1-5.41,6.61A6.22,6.22,0,0,0,61.16,350Z" transform="translate(-0.23 -0.33)"/><path class="cls-2" d="M122.21,387.74H122l3.49,21.63,17-13.79A30.06,30.06,0,0,0,122.21,387.74Z" transform="translate(-0.23 -0.33)"/><path class="cls-2" d="M92.31,413.42h24.4l-3.9-24.18A30.43,30.43,0,0,0,92.31,413.42Z" transform="translate(-0.23 -0.33)"/><path class="cls-2" d="M135.39,413.42h16.7a30.23,30.23,0,0,0-3.74-10.55Z" transform="translate(-0.23 -0.33)"/><path class="cls-2" d="M122.21,448.49h.17l-3.61-22.33-18.59,12.76A30.11,30.11,0,0,0,122.21,448.49Z" transform="translate(-0.23 -0.33)"/><path class="cls-2" d="M152.1,422.81H127.7L131.6,447A30.43,30.43,0,0,0,152.1,422.81Z" transform="translate(-0.23 -0.33)"/><polyline class="cls-2" points="91.88 421.1 88.36 427.79 95.02 431.29"/><line class="cls-2" x1="91.66" y1="426.61" x2="116.01" y2="420.36"/><circle class="cls-2" cx="358.08" cy="406.37" r="4.78"/><circle class="cls-2" cx="394.6" cy="403.91" r="4.08"/><polygon class="cls-2" points="395.81 378.99 357.13 378.99 351.23 354.05 401.88 354.05 395.81 378.99"/><path class="cls-2" d="M358.77,406l5.86-5.86h32.48a5,5,0,0,0,5-5h0a5,5,0,0,0-5-5H359.93l-12.61-53.29H335.07" transform="translate(-0.23 -0.33)"/><line class="cls-2" x1="353.31" y1="362.05" x2="385.66" y2="362.05"/><line class="cls-2" x1="355.1" y1="370.41" x2="376.56" y2="370.41"/><path class="cls-2" d="M340.74,110.8l8.21-1.1-1.3-9.58-8.17,1.1c-.27-.82-.6-1.63-.94-2.42l6.75-4.75-5.57-7.92L333,90.89c-.62-.6-1.29-1.17-2-1.71l3.8-7.32-8.59-4.46-3.8,7.32a26.31,26.31,0,0,0-3.7-.81V75H309v9.34a27.48,27.48,0,0,0-2.71.81l-4.23-7.09L293.79,83,298,90.12c-.63.58-1.25,1.18-1.85,1.82l-7-4.35L284,95.79l7,4.35a24.41,24.41,0,0,0-.81,2.47L282,102l-.74,9.65,8.21.63a25.14,25.14,0,0,0,.43,2.57L282.31,118l3.79,8.89,7.57-3.22c.5.72,1,1.42,1.56,2.09L290,132.17l7.45,6.15,5.24-6.36a24.74,24.74,0,0,0,2.35,1.15l-1.71,8.05,9.44,2,1.73-8.07.58,0a20,20,0,0,0,2-.1l2.18,8,9.32-2.55-2.18-8a22.48,22.48,0,0,0,2.26-1.27l5.62,6.07,7.09-6.56-5.62-6.07c.51-.69,1-1.42,1.44-2.16l7.78,2.79,3.27-9.1-7.78-2.79A25.94,25.94,0,0,0,340.74,110.8Zm-25.67,12.3a13.72,13.72,0,1,1,13.71-13.71A13.71,13.71,0,0,1,315.07,123.1Z" transform="translate(-0.23 -0.33)"/><path class="cls-2" d="M328.78,109.4a13.72,13.72,0,1,1-13.71-13.73A13.7,13.7,0,0,1,328.78,109.4Z" transform="translate(-0.23 -0.33)"/><path class="cls-3" d="M154,336.43l3.85-.16-.28-6.83-4.33.18a23,23,0,0,0-1.35-3.68l3.68-2.16-3.46-5.9-4,2.36a23,23,0,0,0-2.76-2.59l2.37-3.83-5.82-3.6-2.51,4.06a23.21,23.21,0,0,0-3-.93v-4.15h-6.84v3.65a21,21,0,0,0-3,.41L125,309.9l-6.2,2.88,1.34,2.87a22.88,22.88,0,0,0-3.67,2.57l-2.52-1.92-4.14,5.45,2.18,1.65a23.42,23.42,0,0,0-2.06,4.17l-2.77-.45L106,333.89l2.46.4c0,.42-.06.83-.06,1.25a22.62,22.62,0,0,0,.29,3.48l-2.52.86,2.19,6.48,2.37-.81a22.27,22.27,0,0,0,2.51,4l-1.91,2,5,4.7,1.9-2a22.53,22.53,0,0,0,4,2.23l-.83,3,6.59,1.83.86-3.1a23,23,0,0,0,2.39.13c.39,0,.76,0,1.15-.06l.39,2.59,6.77-1-.45-2.93a22.29,22.29,0,0,0,4.12-2l1.75,2.35,5.49-4.08-2-2.71a23.28,23.28,0,0,0,2.54-3.55l3,1.44L157,342.2l-3.48-1.65A22.72,22.72,0,0,0,154,336.43ZM132,339.24a4,4,0,1,1,4-4A4,4,0,0,1,132,339.24Z" transform="translate(-0.23 -0.33)"/><circle class="cls-2" cx="89.14" cy="336.54" r="3.28"/><circle class="cls-2" cx="355.1" cy="247.95" r="3.28"/><circle class="cls-2" cx="350.23" cy="160.58" r="3.28"/><circle class="cls-2" cx="369.48" cy="78.35" r="3.28"/><circle class="cls-2" cx="296.38" cy="20.72" r="3.28"/><circle class="cls-2" cx="139.25" cy="39.98" r="3.28"/><circle class="cls-2" cx="247.7" cy="95.34" r="3.28"/><circle class="cls-2" cx="33.04" cy="113.89" r="3.28"/><circle class="cls-2" cx="333.24" cy="180.25" r="3.28"/><circle class="cls-2" cx="319.21" cy="290.07" r="3.28"/><circle class="cls-2" cx="175.41" cy="402.55" r="3.28"/><circle class="cls-2" cx="24.06" cy="351.48" r="3.28"/><circle class="cls-2" cx="4.78" cy="243.35" r="3.28"/><circle class="cls-2" cx="164.87" cy="72.74" r="3.28"/><circle class="cls-2" cx="450.31" cy="251.23" r="3.28"/><circle class="cls-2" cx="327.54" cy="434.57" r="3.28"/><circle class="cls-2" cx="340.79" cy="309.38" r="3.28"/><line class="cls-2" x1="64.46" y1="305.7" x2="102.08" y2="305.7"/><line class="cls-2" x1="77.36" y1="294.17" x2="100.58" y2="294.17"/><line class="cls-2" x1="352.05" y1="49.02" x2="314.43" y2="49.02"/><line class="cls-2" x1="339.15" y1="37.5" x2="315.93" y2="37.5"/><line class="cls-2" x1="344.65" y1="420.43" x2="333.24" y2="420.43"/><line class="cls-2" x1="70.28" y1="401.59" x2="58.87" y2="401.59"/><line class="cls-2" x1="313.29" y1="203.42" x2="301.88" y2="203.42"/><line class="cls-2" x1="109.54" y1="43.26" x2="98.13" y2="43.26"/><line class="cls-2" x1="330.57" y1="227.57" x2="319.16" y2="227.57"/><line class="cls-2" x1="333.25" y1="398.23" x2="321.83" y2="398.23"/><line class="cls-2" x1="299.17" y1="163.86" x2="287.76" y2="163.86"/><line class="cls-2" x1="167.3" y1="14.1" x2="155.88" y2="14.1"/><line class="cls-2" x1="445.79" y1="220.88" x2="434.38" y2="220.88"/><line class="cls-2" x1="215.82" y1="360.99" x2="204.41" y2="360.99"/><line class="cls-2" x1="226.2" y1="91.34" x2="214.79" y2="91.34"/><line class="cls-2" x1="105.66" y1="163.67" x2="94.25" y2="163.67"/><line class="cls-2" x1="145.37" y1="205.46" x2="133.96" y2="205.46"/><line class="cls-2" x1="141.59" y1="459.83" x2="179.21" y2="459.83"/><line class="cls-2" x1="154.49" y1="448.3" x2="177.71" y2="448.3"/><line class="cls-2" x1="5.25" y1="227.57" x2="42.87" y2="227.57"/><line class="cls-2" x1="18.15" y1="216.04" x2="41.37" y2="216.04"/><line class="cls-2" x1="128.44" y1="132.68" x2="166.06" y2="132.68"/><line class="cls-2" x1="141.34" y1="121.16" x2="164.56" y2="121.16"/></g></svg>