<?xml version="1.0" encoding="utf-8"?>
<!-- Generator: Adobe Illustrator 21.1.0, SVG Export Plug-In . SVG Version: 6.00 Build 0)  -->
<svg version="1.1" id="Layer_1" xmlns="http://www.w3.org/2000/svg" xmlns:xlink="http://www.w3.org/1999/xlink" x="0px" y="0px"
	 viewBox="0 0 1000 1000" style="enable-background:new 0 0 1000 1000;" xml:space="preserve">
<style type="text/css">
	.st0{opacity:0.65;}
	.st1{fill:none;stroke:#FFFFFF;stroke-width:3;stroke-linecap:round;stroke-linejoin:round;stroke-miterlimit:10;}
	.st2{fill:none;stroke:#FFFFFF;stroke-width:3;stroke-miterlimit:10;}
	.st3{fill:none;stroke:#FFFFFF;stroke-miterlimit:10;}
	.st4{fill:#FFFFFF;}
	.st5{font-family:'OpenSans-Regular';}
	.st6{font-size:25.3533px;}
	.st7{font-size:22.8499px;}
</style>
<g id="ICONS_CIRCLE" class="st0">
	<g>
		<circle class="st1" cx="545.3" cy="729.5" r="3.3"/>
		<g>
			<g>
				<path class="st2" d="M531,408.9c2.3-3.6,3.6-7.9,3.6-12.5c0-12.9-10.5-23.4-23.4-23.4c-12.9,0-23.4,10.5-23.4,23.4
					s10.5,23.4,23.4,23.4c3.8,0,7.3-0.9,10.5-2.5c4.6,3.6,11.2,3.3,15.5-0.9c0.2-0.2,0.4-0.5,0.7-0.7L531,408.9z"/>
				<path class="st2" d="M483.3,388.2c-12.9,0-23.4,10.5-23.4,23.4c0,4.6,1.3,8.8,3.6,12.5l-6.8,6.8c0.2,0.2,0.4,0.5,0.7,0.7
					c4.2,4.2,10.9,4.5,15.5,0.9c3.1,1.6,6.7,2.5,10.5,2.5c12.9,0,23.4-10.5,23.4-23.4C506.8,398.7,496.3,388.2,483.3,388.2z"/>
				<g>
					<circle class="st3" cx="473" cy="412.6" r="2.7"/>
					<circle class="st3" cx="483.3" cy="412.6" r="2.7"/>
				</g>
				<g>
					<circle class="st3" cx="502.3" cy="396.4" r="2.2"/>
					<circle class="st3" cx="510.5" cy="396.4" r="2.2"/>
					<circle class="st3" cx="518.8" cy="396.4" r="2.2"/>
				</g>
			</g>
			<g>
				<path class="st2" d="M588.1,624.7c0,11.8-9.6,21.4-21.4,21.4c-11.8,0-21.4-9.6-21.4-21.4c0-7.5,3.9-18,9.8-24.6
					c0.3,0.1,0.7,0.2,1.1,0.2h21.1c0.4,0,0.7-0.1,1.1-0.2C584.2,606.8,588.1,617.2,588.1,624.7z"/>
				<path class="st2" d="M578.4,592.9l2.3-11.1c0.5-2.3-1.4-4.3-3.5-3.6l-7.5,2.4c-1.9,0.6-4,0.6-6,0l-7.7-2.4
					c-2-0.6-3.9,1.3-3.5,3.6l2.3,11.1"/>
				<path class="st2" d="M580.9,596.6c0,1-0.4,1.9-1.1,2.6c-0.4,0.4-1,0.7-1.5,0.9c-0.3,0.1-0.7,0.2-1.1,0.2h-21.1
					c-0.4,0-0.7-0.1-1.1-0.2c-1.5-0.5-2.6-1.9-2.6-3.5c0-1,0.4-1.9,1.1-2.6c0.7-0.7,1.6-1.1,2.6-1.1h21.1
					C579.3,592.9,580.9,594.6,580.9,596.6z"/>
				<text transform="matrix(1 0 0 1 560.4097 631.8856)" class="st4 st5 st6">$</text>
			</g>
			<g>
				<path class="st2" d="M397.9,382.8h-65.2c-2.1,0-3.9-1.7-3.9-3.9v-52.5c0-2.1,1.7-3.9,3.9-3.9h65.2c2.1,0,3.9,1.7,3.9,3.9v52.5
					C401.7,381.1,400,382.8,397.9,382.8z"/>
				<line class="st2" x1="328.8" y1="366.8" x2="401.7" y2="366.8"/>
				<circle class="st3" cx="365.2" cy="375.2" r="2.9"/>
				<rect x="356.5" y="382.8" class="st2" width="17.5" height="9.5"/>
				<path class="st2" d="M382.5,400.2h-34.6c-1.3,0-2.3-1-2.3-2.3v-3.2c0-1.3,1-2.3,2.3-2.3h34.6c1.3,0,2.3,1.1,2.3,2.3v3.2
					C384.9,399.1,383.8,400.2,382.5,400.2z"/>
			</g>
			<g>
				<path class="st2" d="M415.3,446c-1.2,0-2.4-0.5-3.3-1.4l-15-15c-1.8-1.8-1.8-4.8,0-6.6c1.8-1.8,4.8-1.8,6.6,0l11.2,11.2
					l17.3-22.4c1.6-2,4.5-2.4,6.6-0.8c2,1.6,2.4,4.5,0.8,6.6L419,444.2c-0.8,1.1-2.1,1.7-3.4,1.8C415.5,446,415.4,446,415.3,446z"/>
			</g>
			<g>
				<rect x="623.5" y="471.9" class="st1" width="9.8" height="28.2"/>
				<rect x="642.6" y="464.3" class="st1" width="9.8" height="35.8"/>
				<rect x="661.7" y="456.2" class="st1" width="9.8" height="43.9"/>
				<rect x="680.8" y="443.8" class="st1" width="9.8" height="56.3"/>
				<path class="st1" d="M690.2,416.2c-15.8,18.8-30.8,35.6-66.7,35.6"/>
				<polyline class="st1" points="678.7,416.2 690.2,416.2 690.2,427.6 				"/>
			</g>
			<path class="st1" d="M299.7,529.5c-9.1,0-16.6,7.4-16.6,16.6c0,9.9,16.6,33.3,16.6,33.3s16.6-23.6,16.6-33.3
				C316.3,536.9,308.9,529.5,299.7,529.5z M299.7,550.4c-3.4,0-6.2-2.8-6.2-6.2c0-3.4,2.8-6.2,6.2-6.2c3.4,0,6.2,2.8,6.2,6.2
				C305.9,547.6,303.1,550.4,299.7,550.4z"/>
			<g>
				<g>
					<path class="st1" d="M579,677.9v13.4c0,6.3-5.1,11.5-11.5,11.5l0.9,12.6l-17.3-12.6h-13.6v-8.3c0-4.1-1.8-7.8-4.7-10.3
						c-2.4-2.1-5.5-3.3-8.9-3.3h-6.6v-3.1c0-6.3,5.1-11.5,11.5-11.5h38.6C573.9,666.4,579,671.6,579,677.9z"/>
					<line class="st1" x1="560.7" y1="676.3" x2="529.8" y2="676.3"/>
					<line class="st1" x1="568.4" y1="692.2" x2="546.4" y2="692.2"/>
					<line class="st1" x1="568.4" y1="684.3" x2="553" y2="684.3"/>
					<line class="st1" x1="540.7" y1="684.3" x2="532.9" y2="684.3"/>
				</g>
				<g>
					<path class="st1" d="M537.6,694.6v15.8c0,7.5-6.1,13.6-13.6,13.6h-26.3l-20.4,14.9l1.1-14.9c-7.5,0-13.6-6.1-13.6-13.6v-15.8
						c0-7.5,6.1-13.6,13.6-13.6H524c3.4,0,6.5,1.2,8.9,3.3C535.8,686.8,537.6,690.4,537.6,694.6z"/>
					<line class="st1" x1="486.5" y1="692.7" x2="523" y2="692.7"/>
					<line class="st1" x1="477.4" y1="711.5" x2="503.4" y2="711.5"/>
					<line class="st1" x1="477.4" y1="702.1" x2="495.7" y2="702.1"/>
					<line class="st1" x1="510.2" y1="702.1" x2="521.8" y2="702.1"/>
				</g>
			</g>
			<g>
				<circle class="st2" cx="316.1" cy="431.9" r="32.3"/>
				<circle class="st2" cx="316.1" cy="431.9" r="23.7"/>
				<line class="st1" x1="316.1" y1="399.6" x2="316.1" y2="408.2"/>
				<line class="st1" x1="343.8" y1="415.3" x2="336.6" y2="419.9"/>
				<line class="st1" x1="295.4" y1="420.3" x2="288.2" y2="415.6"/>
				<line class="st1" x1="292.4" y1="410" x2="298.4" y2="416"/>
				<text transform="matrix(1 0 0 1 307.959 439.0984)" class="st4 st5 st7">%</text>
			</g>
			<g>
				<g>
					<path class="st2" d="M473.1,314.2l-6.6,46.2c-0.6,4.3-4.3,7.5-8.7,7.5h-0.2v-53.3l5.1-0.3H473.1z"/>
					<g>
						<path class="st2" d="M503.8,301.7c0,6-4.9,11-10.9,11v-21.9C498.9,290.8,503.8,295.7,503.8,301.7z"/>
						<path class="st2" d="M486.9,278.4v46.7c0-3-1.2-5.7-3.2-7.7c-2-2-4.7-3.2-7.7-3.2h-19.5c-6.9,0-12.5-5.6-12.5-12.5
							c0-3.5,1.4-6.6,3.7-8.8c2.3-2.3,5.4-3.7,8.8-3.7h19.5C482.1,289.2,486.9,284.4,486.9,278.4z"/>
						<line class="st2" x1="464.3" y1="289.2" x2="464.3" y2="313.5"/>
						<path class="st2" d="M492.9,275.5v51.6c0,1.6-1.3,3-3,3c-1.6,0-3-1.3-3-3v-51.6c0-1.6,1.3-3,3-3c0.8,0,1.6,0.3,2.1,0.9
							C492.5,273.9,492.9,274.7,492.9,275.5z"/>
					</g>
				</g>
				<g>
					<g>
						<line class="st1" x1="529.1" y1="270.1" x2="538.6" y2="262.8"/>
						<line class="st1" x1="506.7" y1="287.2" x2="520.6" y2="276.5"/>
					</g>
					<g>
						<line class="st1" x1="520.2" y1="290.8" x2="509.5" y2="296.2"/>
						<line class="st1" x1="545.3" y1="278.1" x2="529.7" y2="286"/>
					</g>
					<g>
						<line class="st1" x1="529.1" y1="332.4" x2="538.6" y2="339.7"/>
						<line class="st1" x1="506.7" y1="315.3" x2="520.6" y2="326"/>
					</g>
					<g>
						<line class="st1" x1="520.2" y1="311.7" x2="509.5" y2="306.3"/>
						<line class="st1" x1="545.3" y1="324.4" x2="529.7" y2="316.5"/>
					</g>
					<line class="st1" x1="516.3" y1="301.3" x2="522.8" y2="301.3"/>
					<line class="st1" x1="529.7" y1="301.3" x2="543.3" y2="301.3"/>
					<line class="st1" x1="551.5" y1="301.4" x2="557.1" y2="301.4"/>
				</g>
			</g>
			<g>
				<g>
					<path class="st1" d="M454.7,621H453c-1.8,0-3.2-1.4-3.2-3.2v-17.6c0-1.8,1.4-3.2,3.2-3.2h1.7c1.8,0,3.2,1.4,3.2,3.2v17.6
						C457.9,619.6,456.5,621,454.7,621z"/>
					<path class="st1" d="M516.7,621L516.7,621c-2.2,0-4.1-1.8-4.1-4.1v-15.9c0-2.2,1.8-4.1,4.1-4.1l0,0c2.2,0,4.1,1.8,4.1,4.1V617
						C520.8,619.2,519,621,516.7,621z"/>
				</g>
				<path class="st1" d="M453.9,597c0-17.4,14.1-31.4,31.4-31.4s31.4,14.1,31.4,31.4"/>
				<g>
					<path class="st1" d="M514.2,621l-3.9,10.4c-3.4,9-13.1,13.8-22.3,11.1l0,0"/>
					<circle class="st1" cx="485.3" cy="640.8" r="4.8"/>
				</g>
			</g>
			<g>
				<path class="st1" d="M325,522.3v4.5c0,4.1,3.3,7.5,7.5,7.5h48.9"/>
				<path class="st1" d="M339.1,522.3v-55.5H388v60.8c0,3.7-3,6.7-6.7,6.7l0,0c-3.7,0-6.7-3-6.7-6.7v-5.3H325l0,0"/>
				<g>
					<line class="st1" x1="348.1" y1="479.4" x2="374.6" y2="479.4"/>
					<line class="st1" x1="348.1" y1="505.8" x2="374.6" y2="505.8"/>
					<line class="st1" x1="348.1" y1="497" x2="374.6" y2="497"/>
					<line class="st1" x1="348.1" y1="488.2" x2="366.1" y2="488.2"/>
				</g>
			</g>
			<g>
				<path class="st2" d="M664,403.6l11.1-20.3c2.1-3.9,2.8-8.4,2-12.7v0c-1.7-8.9-9.5-15.3-18.6-15.3H654h6h-4.4
					c-9.1,0-16.9,6.4-18.6,15.3v0c-0.8,4.3-0.1,8.8,2,12.7l11.1,20.3H664z"/>
				<line class="st2" x1="657" y1="408.4" x2="657" y2="408.4"/>
				<g>
					<path class="st2" d="M654.4,408.4v-27.9c0-1.9-1.5-3.4-3.4-3.4l0,0c-1.9,0-3.4,1.5-3.4,3.4v0.5c0,1.9,1.5,3.4,3.4,3.4h9.3"/>
					<path class="st2" d="M659.7,408.4v-27.9c0-1.9,1.5-3.4,3.4-3.4l0,0c1.9,0,3.4,1.5,3.4,3.4v0.5c0,1.9-1.5,3.4-3.4,3.4h-9.3"/>
				</g>
				<path class="st1" d="M661.4,409.8h-8.8c-1.9,0-3.4-1.5-3.4-3.4l0,0c0-1.9,1.5-3.4,3.4-3.4h8.8c1.9,0,3.4,1.5,3.4,3.4l0,0
					C664.8,408.3,663.3,409.8,661.4,409.8z"/>
				<path class="st1" d="M661.4,403h-8.8c-1.9,0-3.4,1.5-3.4,3.4l0,0c0,1.9,1.5,3.4,3.4,3.4h8.8c1.9,0,3.4-1.5,3.4-3.4l0,0
					C664.8,404.5,663.3,403,661.4,403z"/>
				<path class="st1" d="M661.4,409.8h-8.8c-1.9,0-3.4,1.5-3.4,3.4l0,0c0,1.9,1.5,3.4,3.4,3.4h8.8c1.9,0,3.4-1.5,3.4-3.4l0,0
					C664.8,411.3,663.3,409.8,661.4,409.8z"/>
			</g>
			<g>
				<path class="st2" d="M713.1,581.3h-79.2c-2,0-3.6-1.6-3.6-3.6v-45c0-2,1.6-3.6,3.6-3.6h79.2c2,0,3.6,1.6,3.6,3.6v45
					C716.7,579.7,715.1,581.3,713.1,581.3z"/>
				<line class="st1" x1="639.6" y1="570.7" x2="661.9" y2="570.7"/>
				<line class="st1" x1="672.4" y1="570.7" x2="688.8" y2="570.7"/>
				<line class="st1" x1="699.4" y1="570.7" x2="707.6" y2="570.7"/>
				<g>
					<rect x="641.6" y="540.6" class="st1" width="15.5" height="15.5"/>
					<line class="st1" x1="651.9" y1="540.6" x2="651.9" y2="546.7"/>
					<line class="st1" x1="646.3" y1="548.3" x2="646.3" y2="554.4"/>
				</g>
				<line class="st1" x1="707.6" y1="529.1" x2="707.6" y2="581.3"/>
			</g>
			<path class="st1" d="M334.2,611l3,7c1,2.2,3.1,3.6,5.4,3.7c0.5-0.8,1.2-1.5,2.2-1.9c0.9-0.4,1.9-0.5,2.9-0.3
				c1.5,0.3,2.8,1.3,3.5,2.8l2.9,6.8c1,2.4-0.1,5.3-2.5,6.3l-1.6,0.7c-7.1,3.1-15.4-0.2-18.5-7.4l-9.1-21.1
				c-3.1-7.1,0.2-15.4,7.4-18.5l1.6-0.7c2.4-1,5.3,0.1,6.3,2.5l2.9,6.8c0.6,1.5,0.5,3.1-0.3,4.4c-0.5,0.8-1.2,1.5-2.2,1.9
				c-0.9,0.4-2,0.5-2.9,0.3C333.7,606.3,333.2,608.8,334.2,611z"/>
			<g>
				<g>
					<path class="st1" d="M395.2,648.7c-0.1,0-0.1,0-0.2,0l3.5,21.6l17-13.8C410.1,651.7,403,648.7,395.2,648.7z"/>
					<path class="st1" d="M365.3,674.4h24.4l-3.9-24.2C375.1,653.8,367.1,663.1,365.3,674.4z"/>
					<path class="st1" d="M408.4,674.4h16.7c-0.6-3.8-1.9-7.4-3.7-10.5L408.4,674.4z"/>
					<path class="st1" d="M395.2,709.5c0.1,0,0.1,0,0.2,0l-3.6-22.3l-18.6,12.8C378.7,705.8,386.5,709.5,395.2,709.5z"/>
					<path class="st1" d="M425.1,683.8h-24.4l3.9,24.2C415.3,704.5,423.3,695.2,425.1,683.8z"/>
				</g>
				<g>
					<polyline class="st1" points="365.1,682.4 361.6,689.1 368.2,692.6 					"/>
					<line class="st1" x1="364.9" y1="687.9" x2="389.2" y2="681.7"/>
				</g>
			</g>
			<g>
				<circle class="st1" cx="631.3" cy="667.7" r="4.8"/>
				<circle class="st1" cx="667.8" cy="665.2" r="4.1"/>
				<polygon class="st1" points="669,640.3 630.4,640.3 624.5,615.4 675.1,615.4 				"/>
				<path class="st1" d="M631.8,667l5.9-5.9h32.5c2.8,0,5-2.2,5-5l0,0c0-2.8-2.2-5-5-5h-37.2l-12.6-53.3h-12.3"/>
				<line class="st1" x1="626.5" y1="623.4" x2="658.9" y2="623.4"/>
				<line class="st1" x1="628.3" y1="631.7" x2="649.8" y2="631.7"/>
			</g>
			<g>
				<path class="st1" d="M613.7,371.8l8.2-1.1l-1.3-9.6l-8.2,1.1c-0.3-0.8-0.6-1.6-0.9-2.4l6.8-4.7l-5.6-7.9l-6.8,4.7
					c-0.6-0.6-1.3-1.2-2-1.7l3.8-7.3l-8.6-4.5l-3.8,7.3c-1.2-0.4-2.4-0.6-3.7-0.8V336H582v9.3c-0.9,0.2-1.8,0.5-2.7,0.8l-4.2-7.1
					l-8.3,4.9l4.2,7.1c-0.6,0.6-1.3,1.2-1.9,1.8l-7-4.4l-5.1,8.2l7,4.4c-0.3,0.8-0.6,1.6-0.8,2.5L555,363l-0.7,9.6l8.2,0.6
					c0.1,0.9,0.2,1.7,0.4,2.6l-7.6,3.2l3.8,8.9l7.6-3.2c0.5,0.7,1,1.4,1.6,2.1l-5.2,6.4l7.5,6.2l5.2-6.4c0.8,0.4,1.5,0.8,2.3,1.1
					l-1.7,8.1l9.4,2l1.7-8.1c0.2,0,0.4,0,0.6,0c0.7,0,1.4,0,2-0.1l2.2,8l9.3-2.6l-2.2-8c0.8-0.4,1.5-0.8,2.3-1.3l5.6,6.1l7.1-6.6
					l-5.6-6.1c0.5-0.7,1-1.4,1.4-2.2l7.8,2.8l3.3-9.1l-7.8-2.8C613.6,373.5,613.7,372.7,613.7,371.8z M588.1,384.1
					c-7.6,0-13.7-6.1-13.7-13.7c0-7.6,6.1-13.7,13.7-13.7c7.6,0,13.7,6.1,13.7,13.7C601.8,378,595.6,384.1,588.1,384.1z"/>
				<path class="st1" d="M601.8,370.4c0,7.6-6.1,13.7-13.7,13.7c-7.6,0-13.7-6.1-13.7-13.7c0-7.6,6.1-13.7,13.7-13.7
					C595.6,356.7,601.8,362.8,601.8,370.4z"/>
			</g>
			<path class="st2" d="M427,597.4l3.8-0.2l-0.3-6.8l-4.3,0.2c-0.4-1.3-0.8-2.5-1.3-3.7l3.7-2.2l-3.5-5.9l-4,2.4
				c-0.8-0.9-1.8-1.8-2.8-2.6l2.4-3.8l-5.8-3.6l-2.5,4.1c-1-0.4-2-0.7-3-0.9v-4.2h-6.8v3.6c-1,0.1-2,0.2-3,0.4l-1.5-3.3l-6.2,2.9
				l1.3,2.9c-1.3,0.7-2.5,1.6-3.7,2.6l-2.5-1.9l-4.1,5.5l2.2,1.7c-0.8,1.3-1.5,2.7-2.1,4.2l-2.8-0.4l-1.1,6.8l2.5,0.4
				c0,0.4-0.1,0.8-0.1,1.3c0,1.2,0.1,2.3,0.3,3.5l-2.5,0.9l2.2,6.5l2.4-0.8c0.7,1.4,1.5,2.8,2.5,4l-1.9,2l5,4.7l1.9-2
				c1.2,0.9,2.6,1.6,4,2.2l-0.8,3l6.6,1.8l0.9-3.1c0.8,0.1,1.6,0.1,2.4,0.1c0.4,0,0.8,0,1.1-0.1l0.4,2.6l6.8-1l-0.4-2.9
				c1.5-0.5,2.8-1.2,4.1-2l1.7,2.3l5.5-4.1l-2-2.7c0.9-1.1,1.8-2.3,2.5-3.6l3,1.4l2.9-6.2l-3.5-1.7C426.8,600.2,427,598.8,427,597.4
				z M405,600.2c-2.2,0-4-1.8-4-4c0-2.2,1.8-4,4-4c2.2,0,4,1.8,4,4C408.9,598.5,407.2,600.2,405,600.2z"/>
			<circle class="st1" cx="362.4" cy="597.9" r="3.3"/>
			<circle class="st1" cx="628.3" cy="509.3" r="3.3"/>
			<circle class="st1" cx="623.5" cy="421.9" r="3.3"/>
			<circle class="st1" cx="642.7" cy="339.7" r="3.3"/>
			<circle class="st1" cx="569.6" cy="282" r="3.3"/>
			<circle class="st1" cx="412.5" cy="301.3" r="3.3"/>
			<circle class="st1" cx="520.9" cy="356.7" r="3.3"/>
			<circle class="st1" cx="306.3" cy="375.2" r="3.3"/>
			<circle class="st1" cx="606.5" cy="441.6" r="3.3"/>
			<circle class="st1" cx="592.4" cy="551.4" r="3.3"/>
			<circle class="st1" cx="448.6" cy="663.9" r="3.3"/>
			<circle class="st1" cx="297.3" cy="612.8" r="3.3"/>
			<circle class="st1" cx="278" cy="504.7" r="3.3"/>
			<circle class="st1" cx="438.1" cy="334.1" r="3.3"/>
			<circle class="st1" cx="723.5" cy="512.6" r="3.3"/>
			<circle class="st1" cx="600.8" cy="695.9" r="3.3"/>
			<circle class="st1" cx="614" cy="570.7" r="3.3"/>
			<g>
				<line class="st1" x1="337.7" y1="567" x2="375.3" y2="567"/>
				<line class="st1" x1="350.6" y1="555.5" x2="373.8" y2="555.5"/>
			</g>
			<g>
				<line class="st1" x1="625.3" y1="310.3" x2="587.7" y2="310.3"/>
				<line class="st1" x1="612.4" y1="298.8" x2="589.2" y2="298.8"/>
			</g>
			<line class="st1" x1="617.9" y1="681.8" x2="606.5" y2="681.8"/>
			<line class="st1" x1="343.5" y1="662.9" x2="332.1" y2="662.9"/>
			<line class="st1" x1="586.5" y1="464.7" x2="575.1" y2="464.7"/>
			<line class="st1" x1="382.8" y1="304.6" x2="371.4" y2="304.6"/>
			<line class="st1" x1="603.8" y1="488.9" x2="592.4" y2="488.9"/>
			<line class="st1" x1="606.5" y1="659.6" x2="595.1" y2="659.6"/>
			<line class="st1" x1="572.4" y1="425.2" x2="561" y2="425.2"/>
			<line class="st1" x1="440.5" y1="275.4" x2="429.1" y2="275.4"/>
			<line class="st1" x1="719" y1="482.2" x2="707.6" y2="482.2"/>
			<line class="st1" x1="489.1" y1="622.3" x2="477.6" y2="622.3"/>
			<line class="st1" x1="499.4" y1="352.7" x2="488" y2="352.7"/>
			<line class="st1" x1="378.9" y1="425" x2="367.5" y2="425"/>
			<line class="st1" x1="418.6" y1="466.8" x2="407.2" y2="466.8"/>
			<g>
				<line class="st1" x1="414.8" y1="721.2" x2="452.4" y2="721.2"/>
				<line class="st1" x1="427.7" y1="709.6" x2="450.9" y2="709.6"/>
			</g>
			<g>
				<line class="st1" x1="278.5" y1="488.9" x2="316.1" y2="488.9"/>
				<line class="st1" x1="291.4" y1="477.4" x2="314.6" y2="477.4"/>
			</g>
			<g>
				<line class="st1" x1="401.7" y1="394" x2="439.3" y2="394"/>
				<line class="st1" x1="414.6" y1="382.5" x2="437.8" y2="382.5"/>
			</g>
		</g>
	</g>
</g>
</svg>
