<?xml version="1.0" encoding="utf-8"?>
<!-- Generator: Adobe Illustrator 21.1.0, SVG Export Plug-In . SVG Version: 6.00 Build 0)  -->
<svg version="1.1" id="Layer_1" xmlns="http://www.w3.org/2000/svg" xmlns:xlink="http://www.w3.org/1999/xlink" x="0px" y="0px"
	 viewBox="0 0 1000 1000" style="enable-background:new 0 0 1000 1000;" xml:space="preserve">
<style type="text/css">
	.st0{fill:#FFFFFF;}
</style>
<g>
	<path class="st0" d="M509.1,528.4c-1.9,0-3.4-1.5-3.4-3.4v-1h-6.4v1c0,1.9-1.5,3.4-3.4,3.4h-6.3c-1.9,0-3.4-1.5-3.4-3.4v-3.5
		l-0.1,0c-5.2-3.2-8.4-8.9-8.4-14.9c0-0.5,0-1.1,0.1-1.6l0-0.2l-0.2,0c-2.8,0-5-2.3-5-5.1c0-2.8,2.3-5.1,5.1-5.1
		c0.7,0,1.3,0.6,1.3,1.3c0,0.7-0.6,1.3-1.3,1.3c-1.3,0-2.4,1.1-2.4,2.4s1.1,2.4,2.4,2.4h0.6l0-0.1c2.1-7.6,9-12.9,16.9-12.9h1.4
		c0.7,0,1.3,0.6,1.3,1.3s-0.6,1.3-1.3,1.3h-1.4c-8.2,0-14.8,6.6-14.8,14.8c0,5.4,3,10.4,7.8,13c0.4,0.2,0.7,0.7,0.7,1.2v4.2
		c0,0.4,0.3,0.7,0.7,0.7h6.3c0.4,0,0.7-0.3,0.7-0.7v-2.3c0-0.7,0.6-1.3,1.3-1.3h9.1c0.7,0,1.3,0.6,1.3,1.3v2.3
		c0,0.4,0.3,0.7,0.7,0.7h6.3c0.4,0,0.7-0.3,0.7-0.7v-6c0-0.4,0.2-0.8,0.5-1c2.2-1.8,3.8-4.3,4.7-7c0.2-0.5,0.6-0.9,1.1-0.9l2.9-0.4
		c0.4,0,0.7-0.4,0.7-0.7v-5.5c0-0.4-0.3-0.7-0.7-0.7l-3.2-0.4c-0.5-0.1-0.9-0.4-1.1-0.9c-0.7-1.9-1.8-3.7-3.2-5.2
		c-0.1-0.1-0.2-0.2-0.3-0.3c-1.9-1.9-4.3-3.3-7-3.9c-0.3-0.1-0.6-0.3-0.8-0.6c-0.2-0.3-0.2-0.7-0.2-1c0.1-0.6,0.7-1,1.3-1
		c0.1,0,0.2,0,0.3,0c0.7,0.2,1.4,0.4,2,0.6l0.1,0.1l0.1-0.1c1.2-2.8,4-4.6,7-4.6h0.2c0.4,0,0.8,0.2,1,0.5c0.3,0.3,0.3,0.7,0.3,1.1
		l-1.8,7.7l0.1,0.1c1.3,1.4,2.3,3,3,4.8l0,0.1l2.4,0.3c1.7,0.2,3,1.7,3,3.4v5.5c0,1.7-1.3,3.2-3,3.4l-2.1,0.3l0,0.1
		c-1,2.6-2.6,5-4.7,6.9l-0.1,0v5.4c0,1.9-1.5,3.4-3.4,3.4H509.1z M518.6,488.5c-1.3,0.5-2.3,1.5-2.8,2.7l-0.1,0.1l0.1,0.1
		c0.6,0.4,1.2,0.8,1.8,1.2l0.2,0.2l1-4.4L518.6,488.5z"/>
	<path class="st0" d="M515.3,502.2c-0.4,0-0.7-0.1-0.9-0.4c-0.2-0.2-0.4-0.6-0.4-0.9c0-0.4,0.1-0.7,0.4-0.9c0.2-0.2,0.6-0.4,0.9-0.4
		c0.4,0,0.7,0.1,0.9,0.4c0.2,0.2,0.4,0.6,0.4,0.9c0,0.4-0.1,0.7-0.4,0.9C516,502.1,515.6,502.2,515.3,502.2z"/>
	<path class="st0" d="M504.7,485.7c-0.7,0-1.3-0.6-1.3-1.3V480c0-0.7,0.6-1.3,1.3-1.3c0.7,0,1.3,0.6,1.3,1.3v4.3
		C506,485.1,505.4,485.7,504.7,485.7z"/>
	<path class="st0" d="M504.7,477.4c-0.4,0-0.7-0.1-0.9-0.4c-0.2-0.2-0.4-0.6-0.4-0.9c0-0.4,0.1-0.7,0.4-0.9c0.2-0.2,0.6-0.4,0.9-0.4
		s0.7,0.1,0.9,0.4c0.2,0.2,0.4,0.6,0.4,0.9c0,0.3-0.1,0.7-0.4,0.9C505.4,477.3,505,477.4,504.7,477.4z"/>
	<path class="st0" d="M495.9,476.9c-0.7,0-1.3-0.6-1.3-1.3v-1.8c0-0.7,0.6-1.3,1.3-1.3c0.7,0,1.3,0.6,1.3,1.3v1.8
		C497.2,476.3,496.6,476.9,495.9,476.9z"/>
	<path class="st0" d="M484.2,507.9c-0.7,0-1.3-0.6-1.3-1.3c0-0.8,0.6-1.4,1.3-1.4c0.7,0,1.3,0.6,1.3,1.3c0,0.4-0.1,0.7-0.4,1
		C484.8,507.8,484.5,507.9,484.2,507.9L484.2,507.9z"/>
	<path class="st0" d="M489.5,517.3c-0.2,0-0.5-0.1-0.7-0.2c-2.3-1.4-4.2-3.6-5.1-6.2c-0.1-0.3-0.1-0.7,0-1c0.1-0.3,0.4-0.6,0.7-0.7
		c0.2-0.1,0.3-0.1,0.5-0.1c0.5,0,1,0.3,1.2,0.9c0.8,2,2.2,3.7,4,4.8c0.3,0.2,0.5,0.5,0.6,0.8c0.1,0.3,0,0.7-0.2,1
		C490.4,517.1,489.9,517.3,489.5,517.3z"/>
	<path class="st0" d="M495.9,487.2c-2.6,0-4.8-2.2-4.8-4.8s2.2-4.8,4.8-4.8s4.8,2.2,4.8,4.8S498.5,487.2,495.9,487.2z M495.9,480.2
		c-1.2,0-2.1,1-2.1,2.1s1,2.1,2.1,2.1c1.2,0,2.1-1,2.1-2.1S497,480.2,495.9,480.2z"/>
	<path class="st0" d="M495.4,498c-0.7,0-1.3-0.6-1.3-1.3c0-0.7,0.6-1.3,1.3-1.3h4.9l-0.1-0.2c-0.3-0.6-0.4-1.2-0.4-1.9
		c0-2.6,2.2-4.8,4.8-4.8s4.8,2.2,4.8,4.8c0,0.7-0.1,1.3-0.4,1.9l-0.1,0.2h0.5c0.7,0,1.3,0.6,1.3,1.3c0,0.7-0.6,1.3-1.3,1.3H495.4z
		 M504.7,491.1c-1.2,0-2.1,1-2.1,2.1s1,2.1,2.1,2.1c1.2,0,2.1-1,2.1-2.1S505.9,491.1,504.7,491.1z"/>
</g>
</svg>
