<?xml version="1.0" encoding="utf-8"?>
<!-- Generator: Adobe Illustrator 21.1.0, SVG Export Plug-In . SVG Version: 6.00 Build 0)  -->
<svg version="1.1" id="Layer_1" xmlns="http://www.w3.org/2000/svg" xmlns:xlink="http://www.w3.org/1999/xlink" x="0px" y="0px"
	 viewBox="0 0 1000 1000" style="enable-background:new 0 0 1000 1000;" xml:space="preserve">
<style type="text/css">
	.st0{fill:#239FEC;}
</style>
<g>
	<g>
		<g>
			<path class="st0" d="M500,519.4c-1.9,0-3.5-1.4-3.5-3s1.6-3,3.5-3s3.5,1.4,3.5,3c0,0.9,0.7,1.6,1.6,1.6c0.9,0,1.6-0.7,1.6-1.6
				c0-2.9-2.2-5.4-5.1-6.1v-0.7c0-0.9-0.7-1.6-1.6-1.6c-0.9,0-1.6,0.7-1.6,1.6v0.7c-2.9,0.7-5.1,3.2-5.1,6.1c0,3.5,3,6.3,6.8,6.3
				c1.9,0,3.5,1.4,3.5,3s-1.6,3-3.5,3c-1.9,0-3.5-1.4-3.5-3c0-0.9-0.7-1.6-1.6-1.6s-1.6,0.7-1.6,1.6c0,2.9,2.2,5.4,5.1,6.1v0.5
				c0,0.9,0.7,1.6,1.6,1.6s1.6-0.7,1.6-1.6v-0.5c2.9-0.7,5.1-3.2,5.1-6.1C506.8,522.2,503.7,519.4,500,519.4z"/>
		</g>
	</g>
	<g>
		<g>
			<path class="st0" d="M487.6,519.8c-0.3-0.3-0.7-0.5-1.1-0.5c-0.4,0-0.8,0.2-1.1,0.5c-0.3,0.3-0.5,0.7-0.5,1.1
				c0,0.4,0.2,0.8,0.5,1.1c0.3,0.3,0.7,0.5,1.1,0.5c0.4,0,0.8-0.2,1.1-0.5c0.3-0.3,0.5-0.7,0.5-1.1
				C488.1,520.5,487.9,520.1,487.6,519.8z"/>
		</g>
	</g>
	<g>
		<g>
			<path class="st0" d="M514.7,519.8c-0.3-0.3-0.7-0.5-1.1-0.5c-0.4,0-0.8,0.2-1.1,0.5c-0.3,0.3-0.5,0.7-0.5,1.1
				c0,0.4,0.2,0.8,0.5,1.1c0.3,0.3,0.7,0.5,1.1,0.5c0.4,0,0.8-0.2,1.1-0.5c0.3-0.3,0.5-0.7,0.5-1.1
				C515.2,520.5,515,520.1,514.7,519.8z"/>
		</g>
	</g>
	<g>
		<g>
			<path class="st0" d="M500,459.4c-3.9,0-7.1,3.2-7.1,7.1c0,3.4,2.4,6.2,5.5,7v6.8c0,0.9,0.7,1.6,1.6,1.6s1.6-0.7,1.6-1.6v-6.8
				c3.1-0.7,5.5-3.6,5.5-7C507.1,462.6,503.9,459.4,500,459.4z M500,470.4c-2.1,0-3.9-1.7-3.9-3.9c0-2.1,1.7-3.9,3.9-3.9
				c2.1,0,3.9,1.7,3.9,3.9C503.9,468.7,502.1,470.4,500,470.4z"/>
		</g>
	</g>
	<g>
		<g>
			<path class="st0" d="M515.3,468.2c-3.9,0-7.1,3.2-7.1,7.1c0,3.9,3.2,7.1,7.1,7.1c3.9,0,7.1-3.2,7.1-7.1
				C522.4,471.4,519.2,468.2,515.3,468.2z M515.3,479.2c-2.1,0-3.9-1.7-3.9-3.9c0-2.1,1.7-3.9,3.9-3.9c2.1,0,3.9,1.7,3.9,3.9
				C519.2,477.4,517.4,479.2,515.3,479.2z"/>
		</g>
	</g>
	<g>
		<g>
			<path class="st0" d="M484.7,472.1c-3.9,0-7.1,3.2-7.1,7.1s3.2,7.1,7.1,7.1c3.9,0,7.1-3.2,7.1-7.1S488.7,472.1,484.7,472.1z
				 M484.7,483.1c-2.1,0-3.9-1.7-3.9-3.9s1.7-3.9,3.9-3.9c2.1,0,3.9,1.7,3.9,3.9S486.9,483.1,484.7,483.1z"/>
		</g>
	</g>
	<g>
		<g>
			<path class="st0" d="M501.2,486c-0.3-0.3-0.7-0.5-1.1-0.5c-0.4,0-0.8,0.2-1.1,0.5c-0.3,0.3-0.5,0.7-0.5,1.1
				c0,0.4,0.2,0.8,0.5,1.1c0.3,0.3,0.7,0.5,1.1,0.5c0.4,0,0.8-0.2,1.1-0.5c0.3-0.3,0.5-0.7,0.5-1.1
				C501.6,486.8,501.5,486.3,501.2,486z"/>
		</g>
	</g>
	<g>
		<g>
			<path class="st0" d="M515.3,484.9c-0.9,0-1.6,0.7-1.6,1.6v2.9c0,0.9,0.7,1.6,1.6,1.6c0.9,0,1.6-0.7,1.6-1.6v-2.9
				C516.9,485.6,516.2,484.9,515.3,484.9z"/>
		</g>
	</g>
	<g>
		<g>
			<path class="st0" d="M531.5,516.6l-9.1-14.9c1.2-0.9,2-2.3,2-3.9c0-2.7-2.2-4.9-4.9-4.9h-27.6v-3.4c0-0.9-0.7-1.6-1.6-1.6
				c-0.9,0-1.6,0.7-1.6,1.6v3.4h-8.1c-2.7,0-4.9,2.2-4.9,4.9c0,1.6,0.8,3,2,3.9l-9.1,14.9c-2.4,3.9-3.1,8.7-2,13.2
				c1.9,7.5,8.7,12.8,16.5,12.8h9.2c0.9,0,1.6-0.7,1.6-1.6c0-0.9-0.7-1.6-1.6-1.6h-9.2c-6.3,0-11.8-4.3-13.4-10.4
				c-0.9-3.6-0.4-7.5,1.6-10.7l9.6-15.6h38.3l9.6,15.6c1.9,3.2,2.5,7.1,1.6,10.7c-1.6,6.1-7.1,10.4-13.4,10.4h-9.8
				c-0.9,0-1.6,0.7-1.6,1.6c0,0.9,0.7,1.6,1.6,1.6h9.8c7.8,0,14.6-5.3,16.5-12.8C534.6,525.3,533.9,520.5,531.5,516.6z M519.5,499.4
				h-39c-0.9,0-1.6-0.7-1.6-1.6s0.7-1.6,1.6-1.6h39c0.9,0,1.6,0.7,1.6,1.6S520.4,499.4,519.5,499.4z"/>
		</g>
	</g>
	<g>
		<g>
			<path class="st0" d="M501.1,539.8c-0.3-0.3-0.7-0.5-1.1-0.5c-0.4,0-0.8,0.2-1.1,0.5c-0.3,0.3-0.5,0.7-0.5,1.1
				c0,0.4,0.2,0.8,0.5,1.1c0.3,0.3,0.7,0.5,1.1,0.5c0.4,0,0.8-0.2,1.1-0.5c0.3-0.3,0.5-0.7,0.5-1.1
				C501.6,540.5,501.4,540.1,501.1,539.8z"/>
		</g>
	</g>
</g>
</svg>
