<?xml version="1.0" encoding="utf-8"?>
<!-- Generator: Adobe Illustrator 21.1.0, SVG Export Plug-In . SVG Version: 6.00 Build 0)  -->
<svg version="1.1" id="Layer_1" xmlns="http://www.w3.org/2000/svg" xmlns:xlink="http://www.w3.org/1999/xlink" x="0px" y="0px"
	 viewBox="0 0 1000 1000" style="enable-background:new 0 0 1000 1000;" xml:space="preserve">
<style type="text/css">
	.st0{fill:#FFFFFF;}
</style>
<g>
	<g>
		<path class="st0" d="M500.6,411.5c49.3,0,89.4,40,89.4,89.4s-40,89.4-89.4,89.4s-89.4-40-89.4-89.4S451.3,411.5,500.6,411.5
			 M500.6,409.5c-50.4,0-91.4,41-91.4,91.4s41,91.4,91.4,91.4s91.4-41,91.4-91.4S551,409.5,500.6,409.5L500.6,409.5z"/>
	</g>
	<g>
		<g>
			<path class="st0" d="M543.5,511.4c-6.6-6.6-14.4-11.5-23-14.4c9.2-6.3,15.2-16.9,15.2-28.8c0-19.3-15.7-35-35-35s-35,15.7-35,35
				c0,12,6,22.5,15.2,28.8c-8.6,3-16.4,7.8-23,14.4c-11.4,11.4-17.7,26.6-17.7,42.8h9.5c0-28.2,22.9-51.1,51.1-51.1
				c28.2,0,51.1,22.9,51.1,51.1h9.5C561.2,538.1,554.9,522.9,543.5,511.4z M500.6,493.7c-14.1,0-25.5-11.5-25.5-25.5
				s11.5-25.5,25.5-25.5c14.1,0,25.5,11.5,25.5,25.5S514.7,493.7,500.6,493.7z"/>
		</g>
	</g>
</g>
</svg>
