<?xml version="1.0" encoding="utf-8"?>
<!-- Generator: Adobe Illustrator 21.1.0, SVG Export Plug-In . SVG Version: 6.00 Build 0)  -->
<svg version="1.1" id="Layer_1" xmlns="http://www.w3.org/2000/svg" xmlns:xlink="http://www.w3.org/1999/xlink" x="0px" y="0px"
	 viewBox="0 0 1000 1000" style="enable-background:new 0 0 1000 1000;" xml:space="preserve">
<style type="text/css">
	.st0{fill:#239FEC;}
</style>
<g>
	<g>
		<g>
			<path class="st0" d="M527.2,482.8l-2.4,2.4c-0.6,0.6-0.6,1.6,0,2.2c0.6,0.6,1.6,0.6,2.2,0l2.4-2.4c0.6-0.6,0.6-1.6,0-2.2
				C528.8,482.2,527.8,482.2,527.2,482.8z"/>
		</g>
	</g>
	<g>
		<g>
			<path class="st0" d="M534.3,475.6L532,478c-0.6,0.6-0.6,1.6,0,2.2c0.6,0.6,1.6,0.6,2.2,0l2.4-2.4c0.6-0.6,0.6-1.6,0-2.2
				C536,475,535,475,534.3,475.6z"/>
		</g>
	</g>
	<g>
		<g>
			<path class="st0" d="M520,490l-2.4,2.4c-0.6,0.6-0.6,1.6,0,2.2c0.6,0.6,1.6,0.6,2.2,0l2.4-2.4c0.6-0.6,0.6-1.6,0-2.2
				C521.6,489.3,520.6,489.3,520,490z"/>
		</g>
	</g>
	<g>
		<g>
			<path class="st0" d="M505.7,485.2l-3.6,3.6c-1.3,1.3-1.3,3.3,0,4.6l2.4,2.4c1.3,1.3,3.3,1.3,4.6,0l3.6-3.6c1.3-1.3,1.3-3.3,0-4.6
				l-2.4-2.4C509.1,483.9,507,483.9,505.7,485.2z M510.5,489.8c0,0,0,0.1,0,0.1l-3.6,3.6c0,0-0.1,0-0.1,0l-2.4-2.4c0,0,0-0.1,0-0.1
				l3.6-3.6c0,0,0.1,0,0.1,0L510.5,489.8z"/>
		</g>
	</g>
	<g>
		<g>
			<path class="st0" d="M522.4,468.5c-0.9,0.9-1.4,2.1-1.4,3.3c-1.2,0-2.4,0.5-3.3,1.4c-1.9,1.9-1.9,5.1,0,7c1.9,1.9,5.1,1.9,7,0
				c0.9-0.9,1.4-2.1,1.4-3.3c1.2,0,2.4-0.5,3.3-1.4c1.9-1.9,1.9-5.1,0-7C527.5,466.5,524.3,466.5,522.4,468.5z M522.4,478
				c-0.7,0.7-1.8,0.7-2.5,0c-0.7-0.7-0.7-1.8,0-2.5c0.7-0.7,1.8-0.7,2.5,0C523.1,476.2,523.1,477.3,522.4,478z M527.2,473.2
				c-0.7,0.7-1.8,0.7-2.5,0c-0.7-0.7-0.7-1.8,0-2.5c0.7-0.7,1.8-0.7,2.5,0C527.9,471.4,527.9,472.6,527.2,473.2z"/>
		</g>
	</g>
	<g>
		<g>
			<path class="st0" d="M521.2,457.7l-18.5,18.5l-4.8-0.7c-2.2-0.3-4.4,0.2-6.2,1.6l-14.2,10.7c-2,1.5-3.5,3.5-4.4,5.7l-7.2,17.9
				c-0.4,0.9-0.9,1.8-1.4,2.7c-1-0.2-2.2,0.1-3,0.9l-7.2,7.2c-1.3,1.3-1.3,3.3,0,4.6l17.9,17.9c1.3,1.3,3.3,1.3,4.6,0l7.2-7.2
				c0.9-0.9,1.1-2.1,0.8-3.2l24.3-24.3l1.3,1.3c1.9,1.9,5.1,1.9,7,0l28.6-28.6c1.9-1.9,1.9-5.1,0-7l-17.9-17.9
				C526.3,455.8,523.2,455.8,521.2,457.7z M481.8,535.2c0,0,0,0.1,0,0.1l-7.2,7.2c0,0-0.1,0-0.1,0l-17.9-17.9c0,0,0-0.1,0-0.1
				l7.2-7.2c0,0,0.1,0,0.1,0L481.8,535.2z M483,531.8l-15.9-15.9c0.7-1,1.3-2.1,1.8-3.3l7.2-17.9c0.7-1.7,1.9-3.3,3.4-4.4l14.2-10.7
				c1.1-0.8,2.5-1.2,3.8-1l2.5,0.4L488.9,490c-1.9,1.9-2.4,4.6-1.5,7.1l3.2,8.4c0.6,1.4,1.7,2.5,3.2,3c1.5,0.4,3,0.2,4.3-0.7
				l10.6-7.6c0.8-0.6,2-0.5,2.7,0.2c0.8,0.8,0.8,2.1,0,2.9L483,531.8L483,531.8z M491.6,491.9c0.2,0.5,0.6,1.1,1,1.5l8.4,8.4
				l-4.7,3.3c-0.5,0.3-1,0.4-1.6,0.3c-0.5-0.2-1-0.6-1.2-1.1l-3.2-8.4c-0.5-1.3-0.2-2.7,0.8-3.7L491.6,491.9L491.6,491.9z
				 M543.9,477.9c0.7,0.7,0.7,1.8,0,2.5L515.3,509c-0.7,0.7-1.8,0.7-2.5,0l-1.3-1.3l2.3-2.3c1.6-1.6,1.9-3.9,1.1-5.8l0.3-0.3
				c0.6-0.6,0.6-1.6,0-2.2c-0.6-0.6-1.6-0.6-2.2,0l-0.2,0.2c-1.7-1-4-1-5.7,0.2l-3.4,2.4l-8.8-8.8c-0.7-0.7-0.7-1.8,0-2.5l28.6-28.6
				c0.7-0.7,1.8-0.7,2.5,0L543.9,477.9L543.9,477.9z"/>
		</g>
	</g>
	<g>
		<g>
			
				<ellipse transform="matrix(0.7071 -0.7071 0.7071 0.7071 -239.4411 492.3365)" class="st0" cx="474.6" cy="535.2" rx="1.6" ry="1.6"/>
		</g>
	</g>
</g>
</svg>
