<?xml version="1.0" encoding="utf-8"?>
<!-- Generator: Adobe Illustrator 21.1.0, SVG Export Plug-In . SVG Version: 6.00 Build 0)  -->
<svg version="1.1" id="Layer_1" xmlns="http://www.w3.org/2000/svg" xmlns:xlink="http://www.w3.org/1999/xlink" x="0px" y="0px"
	 viewBox="0 0 1000 1000" style="enable-background:new 0 0 1000 1000;" xml:space="preserve">
<style type="text/css">
	.st0{fill:#239FEC;}
</style>
<path class="st0" d="M531.7,501.2v26.6c0,9-7.3,16.3-16.3,16.3h-22c-7,0-13.2-4.5-15.5-11.1l-5.3-15.9c-1.2-3.7,0.1-7.7,3.2-10
	l5.4-3.8v-8.3c-7.2-3-11.9-10-11.9-17.8c0-10.6,8.6-19.3,19.3-19.3s19.3,8.6,19.3,19.3c0,5.2-2.1,10.1-5.7,13.7
	c2.1,0.5,3.8,1.9,4.8,3.8c0.2-0.2,0.3-0.4,0.5-0.5c1.5-1.4,3.6-2.1,5.7-1.9c2.5,0.2,4.6,1.8,5.7,3.9c0.2-0.2,0.3-0.4,0.5-0.5
	c1.5-1.4,3.6-2.1,5.7-1.9C528.8,494,531.7,497.3,531.7,501.2z M528.9,527.8v-26.6c0-2.5-1.8-4.6-4.1-4.8c-1.3-0.1-2.6,0.3-3.5,1.2
	c-1,0.9-1.5,2.1-1.5,3.4v8.9c0,0.8-0.6,1.4-1.4,1.4c-0.8,0-1.4-0.6-1.4-1.4V501v-1.2c0-2.5-1.8-4.6-4.1-4.8
	c-1.3-0.1-2.6,0.3-3.5,1.2c-1,0.9-1.5,2.1-1.5,3.4v8.9c0,0.8-0.6,1.4-1.4,1.4s-1.4-0.6-1.4-1.4v-8.9v-1.2c0-2.5-1.8-4.6-4.1-4.8
	c-1.3-0.1-2.6,0.3-3.5,1.2c-1,0.9-1.5,2.1-1.5,3.4v8.9c0,0.8-0.6,1.4-1.4,1.4s-1.4-0.6-1.4-1.4v-29.5c0-2.5-1.8-4.6-4.1-4.8
	c-1.3-0.1-2.6,0.3-3.5,1.2c-1,0.9-1.5,2.1-1.5,3.4v41.7c0,0.8-0.6,1.4-1.4,1.4s-1.4-0.6-1.4-1.4v-12.2l-3.7,2.7
	c-2.2,1.6-3.1,4.3-2.2,6.8l5.3,15.9c1.8,5.5,7,9.2,12.8,9.2h22C522.8,541.3,528.9,535.2,528.9,527.8z M495.9,491.9
	c5.5-2.8,9.1-8.5,9.1-14.7c0-9.1-7.4-16.5-16.5-16.5s-16.5,7.4-16.5,16.5c0,6.3,3.6,12,9.1,14.7v-3.7c-3.7-2.5-6-6.6-6-11.1
	c0-7.3,6-13.3,13.3-13.3c7.3,0,13.3,6,13.3,13.3c0,4.5-2.3,8.6-6,11.1L495.9,491.9L495.9,491.9z M495.9,484.6c2-2,3.2-4.7,3.2-7.5
	c0-5.8-4.7-10.5-10.5-10.5s-10.5,4.7-10.5,10.5c0,2.9,1.2,5.6,3.2,7.5v-7.5c0-2.1,0.9-4.1,2.4-5.4c1.5-1.4,3.6-2.1,5.7-1.9
	c3.7,0.4,6.6,3.7,6.6,7.6V484.6z"/>
</svg>
