<?xml version="1.0" encoding="utf-8"?>
<!-- Generator: Adobe Illustrator 21.1.0, SVG Export Plug-In . SVG Version: 6.00 Build 0)  -->
<svg version="1.1" id="Layer_1" xmlns="http://www.w3.org/2000/svg" xmlns:xlink="http://www.w3.org/1999/xlink" x="0px" y="0px"
	 viewBox="0 0 1000 1000" style="enable-background:new 0 0 1000 1000;" xml:space="preserve">
<style type="text/css">
	.st0{fill:#FFFFFF;}
</style>
<g id="Icon_Protection_1_">
	<g>
		<g>
			<path class="st0" d="M534.5,473.6c-5.8,0-10.5-4.7-10.5-10.5v-2.4h-47.9v2.4c0,5.8-4.7,10.5-10.5,10.5h-2.4v15.8
				c0,11.3,3.4,22.3,9.9,31.6c6.5,9.3,15.5,16.3,26.1,20.3l0.8,0.3l0.8-0.3c10.6-4,19.6-11,26.1-20.3c6.5-9.3,9.9-20.2,9.9-31.6
				v-15.8H534.5z M532.2,489.4L532.2,489.4c0,10.4-3.1,20.3-9,28.9c-5.7,8.3-13.7,14.6-23,18.3c-9.3-3.7-17.3-10-23-18.3
				c-5.9-8.5-9-18.5-9-28.9v-11.2c6.5-1,11.7-6.2,12.7-12.7h38.8c1,6.5,6.2,11.7,12.7,12.7V489.4L532.2,489.4z"/>
		</g>
	</g>
	<g>
		<g>
			<path class="st0" d="M510.7,483.1L495,498.8l-5.5-5.5l-10.1,10.1l15.5,15.5l25.8-25.8L510.7,483.1z M486.1,503.4l3.4-3.4l5.5,5.5
				l15.7-15.7l3.4,3.4L495,512.2L486.1,503.4z"/>
		</g>
	</g>
</g>
</svg>
