<?xml version="1.0" encoding="utf-8"?>
<!-- Generator: Adobe Illustrator 21.1.0, SVG Export Plug-In . SVG Version: 6.00 Build 0)  -->
<svg version="1.1" id="Layer_1" xmlns="http://www.w3.org/2000/svg" xmlns:xlink="http://www.w3.org/1999/xlink" x="0px" y="0px"
	 viewBox="0 0 1000 1000" style="enable-background:new 0 0 1000 1000;" xml:space="preserve">
<style type="text/css">
	.st0{fill:#FFFFFF;}
</style>
<g id="icon_stability_1_">
	<g>
		<path class="st0" d="M472.1,521.2v14.2h-6.8V526c2-0.7,3.8-1.8,5.3-3.3L472.1,521.2 M476.1,511.5l-8.4,8.4c-1.8,1.8-4,2.8-6.5,2.9
			v14.9c0,0.9,0.7,1.7,1.7,1.7h11.5c0.9,0,1.7-0.7,1.7-1.7V511.5L476.1,511.5z"/>
	</g>
	<g>
		<path class="st0" d="M485.9,521l1.1,1.1c1.6,1.6,3.6,2.8,5.8,3.5v9.8h-6.8V521 M481.9,511.3v26.4c0,0.9,0.7,1.7,1.7,1.7H495
			c0.9,0,1.7-0.7,1.7-1.7v-15.5c-2.6-0.1-5.1-1.1-6.9-2.9L481.9,511.3L481.9,511.3z"/>
	</g>
	<g>
		<path class="st0" d="M513.3,515.7v19.7h-6.8v-12.9c0.2-0.1,0.3-0.3,0.5-0.4L513.3,515.7 M517.3,506l-13.2,13.2
			c-0.5,0.5-1.1,0.9-1.6,1.3v17.2c0,0.9,0.7,1.7,1.7,1.7h11.5c0.9,0,1.7-0.7,1.7-1.7V506L517.3,506z"/>
	</g>
	<g>
		<path class="st0" d="M533.9,495.1v40.3H527v-33.5L533.9,495.1 M536.8,486.5L523,500.3v37.5c0,0.9,0.7,1.7,1.7,1.7h11.5
			c0.9,0,1.7-0.7,1.7-1.7v-50.2c-0.4-0.3-0.7-0.6-0.9-0.8L536.8,486.5L536.8,486.5z"/>
	</g>
	<g>
		<path class="st0" d="M546.2,462.2c-0.5-0.6-1.4-0.9-2.4-0.9c-0.1,0-0.2,0-0.3,0c-5.4,0.2-10.7,0.5-16.1,0.8
			c-0.7,0-1.7,0.1-2.5,0.9c-0.2,0.2-0.4,0.5-0.6,0.9c-0.8,1.7,0.3,2.8,0.9,3.4l1.3,1.4c0.9,0.9,1.9,1.9,2.8,2.8l-32.4,32.4
			l-14.6-14.6c-0.9-0.9-2-1.4-3.3-1.4s-2.4,0.5-3.3,1.4l-19.4,19.4c-1.8,1.8-1.8,4.7,0,6.6l0.9,0.9c0.9,0.9,2,1.4,3.3,1.4
			c1.2,0,2.4-0.5,3.3-1.4l15.2-15.2l14.6,14.6c0.9,0.9,2,1.4,3.3,1.4s2.4-0.5,3.3-1.4l36.6-36.6l4.1,4.1c0.5,0.5,1.2,1.2,2.2,1.2
			c0.4,0,0.9-0.1,1.3-0.4c0.3-0.2,0.6-0.4,0.8-0.6c0.8-0.8,1-1.9,1-2.7c0.2-3.5,0.3-7,0.5-10.4l0.2-5.2
			C547,463.6,546.8,462.8,546.2,462.2z"/>
	</g>
</g>
</svg>
