<?xml version="1.0" encoding="utf-8"?>
<!-- Generator: Adobe Illustrator 21.1.0, SVG Export Plug-In . SVG Version: 6.00 Build 0)  -->
<svg version="1.1" id="Layer_1" xmlns="http://www.w3.org/2000/svg" xmlns:xlink="http://www.w3.org/1999/xlink" x="0px" y="0px"
	 viewBox="0 0 1000 1000" style="enable-background:new 0 0 1000 1000;" xml:space="preserve">
<style type="text/css">
	.st0{fill:#FFFFFF;}
	.st1{fill:#239FEC;}
</style>
<g>
	<path class="st0" d="M500.4,514.1c-7.4,0-13.5-6.1-13.5-13.5s6.1-13.5,13.5-13.5c7.4,0,13.5,6.1,13.5,13.5S507.9,514.1,500.4,514.1
		z"/>
	<path class="st1" d="M500.4,488.1c6.9,0,12.5,5.6,12.5,12.5s-5.6,12.5-12.5,12.5c-6.9,0-12.5-5.6-12.5-12.5
		S493.5,488.1,500.4,488.1 M500.4,486.1c-8,0-14.5,6.5-14.5,14.5s6.5,14.5,14.5,14.5s14.5-6.5,14.5-14.5S508.4,486.1,500.4,486.1
		L500.4,486.1z"/>
</g>
<g>
	<g>
		<path class="st1" d="M506.4,502.1c-0.9-0.9-2-1.6-3.2-2c1.3-0.9,2.1-2.4,2.1-4c0-2.7-2.2-4.9-4.9-4.9c-2.7,0-4.9,2.2-4.9,4.9
			c0,1.7,0.8,3.2,2.1,4c-1.2,0.4-2.3,1.1-3.2,2c-1.6,1.6-2.5,3.7-2.5,6h1.3c0-3.9,3.2-7.1,7.1-7.1c3.9,0,7.1,3.2,7.1,7.1h1.3
			C508.9,505.8,508,503.7,506.4,502.1z M500.4,499.6c-2,0-3.6-1.6-3.6-3.6c0-2,1.6-3.6,3.6-3.6c2,0,3.6,1.6,3.6,3.6
			C504,498,502.4,499.6,500.4,499.6z"/>
	</g>
</g>
</svg>
