<?xml version="1.0" encoding="utf-8"?>
<!-- Generator: Adobe Illustrator 21.1.0, SVG Export Plug-In . SVG Version: 6.00 Build 0)  -->
<svg version="1.1" id="Capa_1" xmlns="http://www.w3.org/2000/svg" xmlns:xlink="http://www.w3.org/1999/xlink" x="0px" y="0px"
	 viewBox="0 0 112.2 112.2" style="enable-background:new 0 0 112.2 112.2;" xml:space="preserve">
<style type="text/css">
	.st0{fill:#FFFFFF;}
</style>
<path class="st0" d="M58.2,38.2c-8.5,0-15.5,6.9-15.5,15.5c0,8.5,6.9,15.5,15.5,15.5c8.5,0,15.5-6.9,15.5-15.5
	C73.7,45.1,66.7,38.2,58.2,38.2z M67.1,60.5l-2.7,0c0,0-0.6,0.1-1.4-0.4c-1-0.7-2-2.5-2.7-2.3c-0.8,0.2-0.7,1.9-0.7,1.9
	s0,0.3-0.2,0.5c-0.2,0.2-0.6,0.2-0.6,0.2h-1.2c0,0-2.7,0.2-5-2.3c-2.6-2.7-4.8-8-4.8-8s-0.1-0.3,0-0.5c0.2-0.2,0.6-0.2,0.6-0.2
	l2.9,0c0,0,0.3,0,0.5,0.2C51.9,49.7,52,50,52,50s0.5,1.2,1.1,2.3c1.2,2.1,1.8,2.6,2.2,2.3c0.6-0.3,0.4-3,0.4-3s0-1-0.3-1.4
	c-0.2-0.3-0.7-0.4-0.9-0.5c-0.2,0,0.1-0.4,0.5-0.6c0.5-0.3,1.4-0.3,2.5-0.3c0.8,0,1.1,0.1,1.4,0.1c1,0.2,0.7,1.2,0.7,3.4
	c0,0.7-0.1,1.7,0.4,2.1c0.2,0.1,0.8,0,2.1-2.3c0.6-1.1,1.1-2.4,1.1-2.4s0.1-0.2,0.3-0.3c0.2-0.1,0.4-0.1,0.4-0.1l3.1,0
	c0,0,0.9-0.1,1.1,0.3c0.2,0.4-0.3,1.5-1.6,3.1c-2,2.7-2.3,2.5-0.6,4.1c1.6,1.5,2,2.2,2,2.3C68.5,60.4,67.1,60.5,67.1,60.5z"/>
</svg>
