<?xml version="1.0" encoding="utf-8"?>
<!-- Generator: Adobe Illustrator 21.1.0, SVG Export Plug-In . SVG Version: 6.00 Build 0)  -->
<svg version="1.1" id="Layer_1" xmlns="http://www.w3.org/2000/svg" xmlns:xlink="http://www.w3.org/1999/xlink" x="0px" y="0px"
	 viewBox="0 0 1000 1000" style="enable-background:new 0 0 1000 1000;" xml:space="preserve">
<style type="text/css">
	.st0{fill:#239FEC;}
</style>
<g id="XMLID_2_">
	<path id="XMLID_35_" class="st0" d="M501.6,498.4c0,0.8-0.6,1.4-1.4,1.4s-1.4-0.6-1.4-1.4c0-0.8,0.6-1.4,1.4-1.4
		S501.6,497.7,501.6,498.4L501.6,498.4z M501.6,498.4"/>
	<path id="XMLID_32_" class="st0" d="M490.4,473.6c0,0.8-0.6,1.4-1.4,1.4s-1.4-0.6-1.4-1.4c0-0.8,0.6-1.4,1.4-1.4
		S490.4,472.9,490.4,473.6L490.4,473.6z M490.4,473.6"/>
	<path id="XMLID_16_" class="st0" d="M501.6,505.6c0,0.8-0.6,1.4-1.4,1.4s-1.4-0.6-1.4-1.4c0-0.8,0.6-1.4,1.4-1.4
		S501.6,504.9,501.6,505.6L501.6,505.6z M501.6,505.6"/>
	<g id="XMLID_6_">
		<path id="XMLID_13_" class="st0" d="M501.6,512.9c0,0.8-0.6,1.4-1.4,1.4s-1.4-0.6-1.4-1.4s0.6-1.4,1.4-1.4
			S501.6,512.1,501.6,512.9L501.6,512.9z M501.6,512.9"/>
		<path id="XMLID_7_" class="st0" d="M512.2,500.8c4.7-3,7.5-8.1,7.5-13.6v-12.2c3.4-0.4,6.1-3.3,6.1-6.9v-0.6
			c0-0.8-0.6-1.4-1.4-1.4h-47.8c-0.8,0-1.4,0.6-1.4,1.4v0.6c0,3.6,2.7,6.5,6.2,6.9v12.2c0,5.5,2.8,10.6,7.5,13.6
			c0.1,0,0.1,0.1,0.1,0.2c0,0.1,0,0.1-0.1,0.2c-4.7,3-7.5,8.1-7.5,13.6v12.1c-3.4,0-6.2,2.8-6.2,6.2v1.3c0,0.8,0.6,1.4,1.4,1.4h47.8
			c0.8,0,1.4-0.6,1.4-1.4v-1.3c0-3.4-2.7-6.1-6.1-6.2v-12.1c0-5.5-2.8-10.6-7.5-13.6c-0.1,0-0.1-0.1-0.1-0.2
			C512.1,500.9,512.1,500.8,512.2,500.8L512.2,500.8z M519.6,529.6c1.9,0,3.4,1.5,3.4,3.4H478c0-1.9,1.6-3.4,3.4-3.4h1.3
			c0,0,0,0,0,0c0,0,0,0,0,0H519.6z M488.6,526.9l12-5.9l11.9,5.9H488.6z M510.7,503.4c3.9,2.5,6.2,6.7,6.2,11.4v11.3l-15.8-7.9
			c-0.4-0.2-0.8-0.2-1.2,0l-15.8,7.8v-11.3c0-4.6,2.3-8.9,6.2-11.4c0.8-0.5,1.3-1.5,1.3-2.5c0-1-0.5-1.9-1.3-2.5
			c-3.9-2.5-6.2-6.7-6.2-11.4v-13.3c0-0.1,0-0.2,0-0.2c0-0.8-0.6-1.4-1.4-1.4h-0.6c-2,0-3.8-1.5-4.1-3.4H523
			c-0.4,1.9-2.1,3.4-4.1,3.4h-23.5c-0.8,0-1.4,0.6-1.4,1.4s0.6,1.4,1.4,1.4h21.6v12.1c0,4.6-2.3,8.9-6.2,11.4
			c-0.8,0.5-1.3,1.5-1.3,2.5C509.4,502,509.9,502.9,510.7,503.4L510.7,503.4z M510.7,503.4"/>
	</g>
	<path id="XMLID_3_" class="st0" d="M511.7,487.8h-8.2c-1.6,0-2.6,0.6-3.1,1.2c-0.8-0.7-1.9-1.2-3.4-1.2h-8.2
		c-0.8,0-1.4,0.6-1.4,1.4s0.6,1.4,1.4,1.4h8.2c1.9,0,2.1,1.2,2.1,1.7c0,0,0,0,0,0c0,0.7,0.6,1.3,1.4,1.3c0,0,0,0,0,0
		c0.7,0,1.3-0.6,1.3-1.4c0,0,0,0,0,0c0-0.6,0.2-1.6,1.7-1.6h8.2c0.8,0,1.4-0.6,1.4-1.4S512.5,487.8,511.7,487.8L511.7,487.8z
		 M511.7,487.8"/>
</g>
</svg>
