<?xml version="1.0" encoding="utf-8"?>
<!-- Generator: Adobe Illustrator 21.1.0, SVG Export Plug-In . SVG Version: 6.00 Build 0)  -->
<svg version="1.1" id="Layer_1" xmlns="http://www.w3.org/2000/svg" xmlns:xlink="http://www.w3.org/1999/xlink" x="0px" y="0px"
	 viewBox="0 0 1000 1000" style="enable-background:new 0 0 1000 1000;" xml:space="preserve">
<style type="text/css">
	.st0{fill:#FFFFFF;}
</style>
<g>
	<path class="st0" d="M481.2,524.7c-2.4,0-4.3-1.9-4.3-4.2v-27.6c0-2,1.4-3.7,3.3-4.2l0.1,0l11.2-4l8.3-8.3c0.2-0.2,0.4-0.3,0.7-0.3
		c0.3,0,0.5,0.1,0.7,0.3l3.6,3.6l9.7-3.4c0.1,0,0.2-0.1,0.3-0.1c0.2,0,0.4,0.1,0.6,0.2c0.3,0.2,0.4,0.5,0.4,0.8v11.1h4.6
		c2.4,0,4.3,1.9,4.3,4.3v27.6c0,2.3-1.9,4.2-4.3,4.2H481.2z M481.2,490.4c-1.3,0-2.4,1.1-2.4,2.4v27.6c0,1.3,1.1,2.4,2.4,2.4h39
		c1.3,0,2.4-1.1,2.4-2.4v-5.7h-7.9c-3,0-5.4-2.4-5.4-5.4v-5.4c0-3,2.4-5.4,5.3-5.4h7.9v-5.7c0-1.3-1.1-2.4-2.4-2.4H481.2z
		 M514.6,500.5c-0.9,0-1.8,0.4-2.4,1c-0.6,0.7-1,1.5-1,2.4v5.4c0,1.9,1.6,3.5,3.5,3.5h7.9v-12.4H514.6L514.6,500.5z M506.1,481.4
		l7.6,7.5v-10.2L506.1,481.4z M490.1,488.5h20.4l-10.3-10.2L490.1,488.5z"/>
	<path class="st0" d="M513.4,506.7c0,2,1.6,3.5,3.5,3.5s3.5-1.6,3.5-3.5s-1.6-3.5-3.5-3.5S513.4,504.7,513.4,506.7z M516.9,505.4
		c0.7,0,1.3,0.6,1.3,1.3c0,0.7-0.6,1.3-1.3,1.3c-0.7,0-1.3-0.6-1.3-1.3C515.6,505.9,516.2,505.4,516.9,505.4z"/>
</g>
</svg>
